#N canvas 0 50 1600 818 10;
#X declare -path . -lib submission;
#X obj 16 546 declare -path . -lib submission;
#X obj 575 423 encoder1 3 *****;
#X obj 46 267 print;
#X obj 35 181 bng 15 250 50 0 empty empty empty 17 7 0 10 -262144 -1
-1;
#X obj 45 82 encoder1 1;
#X obj 27 126 decoder1 1 mono;
#X obj 45 30 osc~ 440;
#X obj 78 49 phasor~ 1;
#X obj 149 58 phasor~ 1;
#X obj 34 202 optimizer 1;
#X obj 28 298 unpack f;
#X text 58 174 All first order coefficents are 1;
#X text 46 226 Therefore no need to multiply them in;
#X obj 60 408 encoder1 1;
#X obj 64 439 decoder1;
#X obj 29 365 osc~ 440;
#X obj 99 365 phasor~ 1;
#X obj 181 365 phasor~ 1;
#X text 4 -1 This is a first order system \, decoded for monophonic
playback;
#X text 6 331 This is a first order system \, decoded for stereo playback
(stereo \, 1st order are default values for decoder);
#X obj 26 154 dac~ 1;
#X obj 64 467 dac~ 1 2;
#X obj 482 55 osc~ 440;
#X obj 550 59 phasor~ 1;
#X obj 624 67 phasor~ 1;
#X obj 734 198 print;
#X obj 723 112 bng 15 250 50 0 empty empty empty 17 7 0 10 -262144
-1 -1;
#X floatatom 715 258 5 0 0 0 - - -, f 5;
#X floatatom 782 259 5 0 0 0 - - -, f 5;
#X obj 722 133 optimizer 2;
#X obj 715 229 unpack f f;
#X obj 782 278 s f;
#X obj 560 152 *~;
#X obj 579 130 r f;
#X obj 608 137 *~;
#X obj 628 115 r f;
#X text 701 37 Coefficients in my optimizer are created for 2d playback
\, and my system is 3d-> to get around that \, I am just not multiplying
my 3d signal by any value;
#X text 762 83 Technically \, would need to create a second optimizer
patch to create optimized coefficients for 3d playback;
#X obj 544 370 osc~ 440;
#X obj 612 374 phasor~ 1;
#X obj 686 382 phasor~ 1;
#X obj 842 513 print;
#X obj 830 427 bng 15 250 50 0 empty empty empty 17 7 0 10 -262144
-1 -1;
#X floatatom 823 573 5 0 0 0 - - -, f 5;
#X floatatom 874 579 5 0 0 0 - - -, f 5;
#X obj 830 448 optimizer 3;
#X obj 823 544 unpack f f f;
#X floatatom 929 582 5 0 0 0 - - -, f 5;
#X obj 874 598 s f2;
#X obj 930 601 s f3;
#X obj 570 554 decoder1 3 hex;
#X obj 621 511 *~;
#X obj 708 508 *~;
#X obj 744 516 *~;
#X obj 655 510 *~;
#X obj 632 489 r f2;
#X obj 672 491 r f2;
#X obj 727 486 r f3;
#X obj 769 486 r f3;
#X obj 566 591 dac~ 1 2 3 4 5 6;
#X obj 1199 422 encoder1 3 *****;
#X obj 1168 369 osc~ 440;
#X obj 1236 373 phasor~ 1;
#X obj 1310 381 phasor~ 1;
#X obj 1245 510 *~;
#X obj 1332 507 *~;
#X obj 1368 515 *~;
#X obj 1279 509 *~;
#X obj 1256 488 r f2;
#X obj 1296 490 r f2;
#X obj 1351 485 r f3;
#X obj 1393 485 r f3;
#X text 505 327 This is a 3rd order system \, decoded for quadrophonic
playback;
#X text 1089 278 This is a 3rd order system \, decoded for stereo playback
;
#X text 1084 291 You lose a lot of data this way \, but it gives the
system some flexibility;
#X text 1078 321 In the future \, I'd like to play around with methods
for incorporating more data from higher encoded signal into mono and
stereo forms;
#X obj 528 84 encoder1 2;
#X text 467 4 This is a 2nd order system \, decoded for stereo playback
;
#X obj 492 192 decoder1 2 stereo;
#X obj 520 219 dac~ 1 2;
#X obj 1194 553 decoder1 3 quad;
#X obj 1205 579 dac~ 1 2 3 4;
#X connect 1 0 50 0;
#X connect 1 1 50 1;
#X connect 1 2 50 2;
#X connect 1 3 51 0;
#X connect 1 4 54 0;
#X connect 1 5 52 0;
#X connect 1 6 53 0;
#X connect 3 0 9 0;
#X connect 4 0 5 0;
#X connect 4 1 5 1;
#X connect 4 2 5 2;
#X connect 4 3 5 3;
#X connect 6 0 4 0;
#X connect 7 0 4 1;
#X connect 8 0 4 2;
#X connect 9 0 2 0;
#X connect 9 0 10 0;
#X connect 13 0 14 0;
#X connect 13 1 14 1;
#X connect 13 2 14 2;
#X connect 13 3 14 3;
#X connect 15 0 13 0;
#X connect 16 0 13 1;
#X connect 17 0 13 2;
#X connect 22 0 76 0;
#X connect 23 0 76 1;
#X connect 24 0 76 2;
#X connect 26 0 29 0;
#X connect 28 0 31 0;
#X connect 29 0 25 0;
#X connect 29 0 30 0;
#X connect 30 0 27 0;
#X connect 30 1 28 0;
#X connect 32 0 78 3;
#X connect 33 0 32 1;
#X connect 34 0 78 4;
#X connect 35 0 34 1;
#X connect 38 0 1 0;
#X connect 39 0 1 1;
#X connect 40 0 1 2;
#X connect 42 0 45 0;
#X connect 44 0 48 0;
#X connect 45 0 41 0;
#X connect 45 0 46 0;
#X connect 46 0 43 0;
#X connect 46 1 44 0;
#X connect 46 2 47 0;
#X connect 47 0 49 0;
#X connect 51 0 50 3;
#X connect 52 0 50 5;
#X connect 53 0 50 6;
#X connect 54 0 50 4;
#X connect 55 0 51 1;
#X connect 56 0 54 1;
#X connect 57 0 52 1;
#X connect 58 0 53 1;
#X connect 60 0 80 0;
#X connect 60 1 80 1;
#X connect 60 2 80 2;
#X connect 60 3 64 0;
#X connect 60 4 67 0;
#X connect 60 5 65 0;
#X connect 60 6 66 0;
#X connect 61 0 60 0;
#X connect 62 0 60 1;
#X connect 63 0 60 2;
#X connect 64 0 80 3;
#X connect 65 0 80 5;
#X connect 66 0 80 6;
#X connect 67 0 80 4;
#X connect 68 0 64 1;
#X connect 69 0 67 1;
#X connect 70 0 65 1;
#X connect 71 0 66 1;
#X connect 76 0 78 0;
#X connect 76 1 78 1;
#X connect 76 2 78 2;
#X connect 76 3 32 0;
#X connect 76 4 34 0;
#X connect 78 0 79 0;
#X connect 78 1 79 1;
#X connect 80 0 81 0;
#X connect 80 1 81 1;
#X connect 80 2 81 2;
#X connect 80 3 81 3;
